# xmcd
#
# Track frame offsets: 
#        150
#        25163
#        38644
#        47964
#        62606
#        70844
#        82786
#        96269
#        106630
#        114862
#        124982
#        136349
#        170451
#        180068
#        186290
#        199474
#        210875
#        224055
#        235841
#        255409
#        267505
#        277846
#        291497
#        302929
#        317238
#        330338
#
# Disc length: 4675 seconds
#
# Revision: 1
# Processed by: cddbd v1.5.2PL0 Copyright (c) Steve Scherf et al.
# Submitted via: ExactAudioCopy v1.1
#
DISCID=7412411a
DTITLE=Various Artist - Fire In My Bone Raw Rare and Otherworldly Afric
DTITLE=an-American Gospel 1944-2007 [Disc 3)
DYEAR=2009
DGENRE=Gospel
TTITLE0=Brother and Sister W B Grate - Power Is In The Heart Of Man
TTITLE1=Ike Gordon - Don't Let The Devil Ride
TTITLE2=Reverend Billy H Grady - Holy Rock
TTITLE3=Willamette Gospel Singers - Pray On, My Child
TTITLE4=Sensational Skylights - Jesus Is Sweet To Me
TTITLE5=Brother Willie Eason and His Gospel Guitar - I Want To Live (So 
TTITLE5=God Can Use Me)
TTITLE6=Helen McGiver and The McGiver Sisters - I'm Just A Voice
TTITLE7=The B.C. Harmonizers - You Ought To Been There
TTITLE8=The Bible Aires Spiritual Singers [Belle Aires]) - You Better 
TTITLE8=Get Ready
TTITLE9=Lula Collins - Help Me
TTITLE10=Little Ax and The Golden Echoes - So Soon
TTITLE11=Bishop McDaniel - Introduction, Rock Daniels
TTITLE12=John Boswell and The True Sounding Boswellettes - The Very Last
TTITLE12=Mile
TTITLE13=Leon Pinson - What God Can Do
TTITLE14=Rev. John Wilkins - Let The Redeemed Say So
TTITLE15=E.L. Burtis - Sweet Home
TTITLE16=Elizabeth Phillips - A Little Old Fashioned
TTITLE17=Rev. Charles White - How Long
TTITLE18=Isaac Haney - At A Time Like This (Pt 1)
TTITLE19=Prof. James Earle Hines and His Goodwill Singers - God Rode In 
TTITLE19=A Windstorm
TTITLE20=Madam Ira Mae Littlejohn - Go Devil Go
TTITLE21=Elder Samuel Patterson and The Christian Crusaders - This Train
TTITLE22=Straight Street Holiness Group - Victory Shall Be Mine
TTITLE23=Mosby Family Singers - The Lord Is My Shepherd
TTITLE24=Bishop Perry Tillis - Some Sweet Day
TTITLE25=Theotis Taylor - Swing Low
EXTD=
EXTT0=
EXTT1=
EXTT2=
EXTT3=
EXTT4=
EXTT5=
EXTT6=
EXTT7=
EXTT8=
EXTT9=
EXTT10=
EXTT11=
EXTT12=
EXTT13=
EXTT14=
EXTT15=
EXTT16=
EXTT17=
EXTT18=
EXTT19=
EXTT20=
EXTT21=
EXTT22=
EXTT23=
EXTT24=
EXTT25=
PLAYORDER=
